<?xml version="1.0" encoding="UTF-8"?>
<svg xmlns="http://www.w3.org/2000/svg" viewBox="0 0 35.63 35.01">
  <g>
    <g>
      <path fill="#ffffff" d="M25.38,14.31h-15.02c-1.17,0-2.34.2-3.45.59C2.79,16.37,0,20.29,0,24.66v10.35l6.39-4.02v-6.33s0-.02,0-.04c.02-2.16,1.79-3.92,3.96-3.92h13.15s4.71.1,6.68-1.01c1.97-1.11,3.17-2.44,4.19-4.25.47-.83.82-1.71,1.05-2.63h-6.96c-.73.91-1.84,1.5-3.09,1.5Z"/>
      <path fill="#ffffff" d="M28.83.59c-1.11-.39-2.28-.59-3.45-.59H5.81S0,6.39,0,6.39h25.38c1.69,0,3.14,1.07,3.7,2.57h6.55c-.52-3.8-3.13-7.06-6.81-8.37Z"/>
    </g>
    <path fill="#ffffff" d="M34.44,35.01l-6-3.71v-8.23h3.08c1.61,0,2.92,1.31,2.92,2.92v9.01Z"/>
  </g>
</svg>
